<svg width="502" height="121" viewBox="0 0 502 121" fill="none" xmlns="http://www.w3.org/2000/svg">
<path fill-rule="evenodd" clip-rule="evenodd" d="M24.9507 24.9511C16.0874 24.2741 7.77356 29.6396 7.01312 39.136C6.25266 48.6325 12.8337 56.6575 22.0272 57.7962C29.6708 58.7428 48.8636 57.6681 55.1171 57.2789C55.8165 57.2355 56.1664 57.2136 56.4475 57.0612C56.6927 56.9284 56.8997 56.7214 57.0328 56.4759C57.1852 56.1948 57.2068 55.8452 57.2505 55.1455C57.6397 48.892 58.7143 29.6994 57.7678 22.0556C56.6291 12.8621 48.6461 6.14714 39.1075 7.04169C29.5688 7.93624 24.2737 16.0879 24.9507 24.9511Z" fill="url(#paint0_linear_740_207)"/>
<path fill-rule="evenodd" clip-rule="evenodd" d="M96.7466 95.3575C105.61 96.0345 113.924 90.669 114.684 81.1726C115.445 71.6761 108.864 63.6511 99.6701 62.5124C92.0265 61.5658 72.8336 62.6405 66.5802 63.0297C65.8807 63.0731 65.5309 63.095 65.2497 63.2474C65.0045 63.3802 64.7975 63.5872 64.6644 63.8326C64.512 64.1138 64.4904 64.4634 64.4468 65.1631C64.0576 71.4165 62.983 90.6092 63.9295 98.253C65.0682 107.446 73.0511 114.161 82.5898 113.267C92.1285 112.372 97.4236 104.221 96.7466 95.3575Z" fill="url(#paint1_linear_740_207)"/>
<path fill-rule="evenodd" clip-rule="evenodd" d="M94.9358 26.6293C95.5264 18.896 90.8449 11.642 82.5591 10.9785C74.2732 10.3149 67.2712 16.057 66.2777 24.0785C65.4518 30.7478 66.3895 47.4939 66.7291 52.9501C66.767 53.5604 66.786 53.8657 66.919 54.111C67.0349 54.325 67.2155 54.5056 67.4297 54.6217C67.675 54.7547 67.98 54.7735 68.5905 54.8116C74.0468 55.1512 90.7928 56.0888 97.4621 55.263C105.484 54.2694 111.343 47.3041 110.562 38.9814C109.782 30.6588 102.669 26.0386 94.9358 26.6293Z" stroke="url(#paint2_radial_740_207)" stroke-width="8" stroke-linecap="round" stroke-linejoin="round"/>
<path fill-rule="evenodd" clip-rule="evenodd" d="M26.6287 93.5464C26.038 101.28 30.7195 108.534 39.0054 109.197C47.2912 109.861 54.2932 104.119 55.2868 96.0972C56.1127 89.428 55.175 72.6819 54.8354 67.2256C54.7975 66.6153 54.7784 66.3101 54.6455 66.0648C54.5295 65.8508 54.3489 65.6702 54.1348 65.5541C53.8895 65.4211 53.5844 65.4023 52.9739 65.3642C47.5177 65.0246 30.7717 64.087 24.1024 64.9128C16.0808 65.9064 10.2219 72.8717 11.0024 81.1943C11.7829 89.517 18.8953 94.1371 26.6287 93.5464Z" stroke="url(#paint3_radial_740_207)" stroke-width="8" stroke-linecap="round" stroke-linejoin="round"/>
<path d="M168 59H145.2V17H150.18V58.4H168V59ZM178.348 59H177.628L195.568 17L196.228 16.7L211.348 59H206.248L201.568 45.8H184.048L178.348 59ZM193.708 23.48L184.288 45.2H201.388L193.708 23.48ZM245.492 19.52C241.852 18.12 238.412 17.42 235.172 17.42C231.972 17.42 229.472 18.1 227.672 19.46C225.872 20.82 224.972 22.7 224.972 25.1C224.972 28.02 226.492 30.28 229.532 31.88C230.892 32.56 232.372 33.2 233.972 33.8C235.612 34.36 237.252 35 238.892 35.72C240.532 36.44 242.032 37.26 243.392 38.18C244.752 39.1 245.852 40.38 246.692 42.02C247.532 43.62 247.952 45.68 247.952 48.2C247.952 50.68 247.252 52.8 245.852 54.56C244.452 56.32 242.752 57.52 240.752 58.16C238.792 58.76 236.492 59.06 233.852 59.06C228.932 59.06 224.732 57.84 221.252 55.4L221.552 54.92C222.872 55.96 224.572 56.82 226.652 57.5C228.772 58.14 230.932 58.46 233.132 58.46C236.372 58.46 239.132 57.72 241.412 56.24C243.732 54.72 244.892 52.5 244.892 49.58C244.892 46.38 243.372 43.88 240.332 42.08C238.972 41.28 237.472 40.54 235.832 39.86C234.232 39.18 232.612 38.48 230.972 37.76C229.332 37 227.832 36.16 226.472 35.24C223.432 33.24 221.912 30.4 221.912 26.72C221.912 23.8 222.892 21.44 224.852 19.64C226.812 17.8 229.752 16.88 233.672 16.88C237.632 16.88 241.652 17.56 245.732 18.92L245.492 19.52ZM284.111 17V17.6H265.211V35.6H282.731V36.2H265.211V58.4H285.431V59H260.231V17H284.111ZM297.755 17.48C302.395 17.16 306.495 17 310.055 17C319.935 17 324.875 20.3 324.875 26.9C324.875 29.7 324.195 32.2 322.835 34.4C321.475 36.6 319.135 38.06 315.815 38.78L327.815 59H322.235L310.475 39.14H302.735V59H297.755V17.48ZM310.055 17.6C307.735 17.6 305.295 17.74 302.735 18.02V38.54H311.615C317.255 38.3 320.075 34.46 320.075 27.02C320.075 23.98 319.235 21.66 317.555 20.06C315.875 18.42 313.375 17.6 310.055 17.6ZM364.2 59H363.42V17H365.46L390.42 55.82V17H391.2V59H386.82L364.2 24.2V59ZM405.286 17.6V17H415.966V17.6H413.026V58.4H415.966V59H405.286V58.4H408.046V17.6H405.286ZM449.542 59.24C442.062 59.24 436.522 57.12 432.922 52.88C431.642 51.36 430.602 49.34 429.802 46.82C429.002 44.3 428.602 41.24 428.602 37.64C428.602 34.04 429.182 30.82 430.342 27.98C431.542 25.1 433.162 22.88 435.202 21.32C439.162 18.4 443.942 16.94 449.542 16.94C451.142 16.94 452.702 17.08 454.222 17.36C455.742 17.6 456.882 17.86 457.642 18.14L458.722 18.56L458.542 19.16C455.822 18.08 452.822 17.54 449.542 17.54C445.302 17.54 441.762 18.92 438.922 21.68C436.762 23.72 435.242 26.72 434.362 30.68C433.842 32.92 433.582 35.66 433.582 38.9C433.582 42.14 434.042 45.14 434.962 47.9C435.882 50.62 436.922 52.64 438.082 53.96C439.282 55.28 440.722 56.34 442.402 57.14C444.082 57.9 445.422 58.34 446.422 58.46C447.422 58.58 448.622 58.64 450.022 58.64C451.462 58.64 453.082 58.5 454.882 58.22C456.682 57.94 458.042 57.68 458.962 57.44L460.342 57.02L460.522 57.62C457.482 58.7 453.822 59.24 449.542 59.24ZM496.713 17V17.6H477.813V35.6H495.333V36.2H477.813V58.4H498.033V59H472.833V17H496.713Z" fill="black"/>
<path d="M331.96 78.624C334.125 78.4747 336.039 78.4 337.7 78.4C342.311 78.4 344.616 79.94 344.616 83.02C344.616 84.1773 344.28 85.176 343.608 86.016C342.936 86.8373 341.863 87.3973 340.388 87.696C341.807 87.864 342.927 88.2933 343.748 88.984C344.569 89.6747 344.98 90.8787 344.98 92.596C344.98 96.1987 342.675 98 338.064 98H331.96V78.624ZM334.284 97.72H338.064C339.725 97.72 340.901 97.2907 341.592 96.432C342.301 95.5547 342.656 94.22 342.656 92.428C342.656 90.636 342.301 89.4413 341.592 88.844C340.883 88.2467 339.828 87.9293 338.428 87.892H334.284V97.72ZM337.7 78.68C336.617 78.68 335.479 78.7453 334.284 78.876V87.612H338.428C341.06 87.5 342.376 85.988 342.376 83.076C342.376 81.6573 341.984 80.5747 341.2 79.828C340.416 79.0627 339.249 78.68 337.7 78.68ZM374.473 78.4V78.68H365.653V87.08H373.829V87.36H365.653V97.72H375.089V98H363.329V78.4H374.473ZM392.656 98H392.32L400.692 78.4L401 78.26L408.056 98H405.676L403.492 91.84H395.316L392.656 98ZM399.824 81.424L395.428 91.56H403.408L399.824 81.424ZM439.726 78.4H440.09V89.6C440.09 92.5307 439.511 94.6867 438.354 96.068C437.196 97.4307 435.684 98.112 433.818 98.112C432.642 98.112 431.643 98.0093 430.822 97.804C430 97.58 429.226 97.1787 428.498 96.6C427.004 95.4427 426.258 93.1093 426.258 89.6V78.4H428.582V89.572C428.582 92.9693 429.095 95.2373 430.122 96.376C430.644 96.936 431.186 97.3187 431.746 97.524C432.324 97.7293 433.015 97.832 433.818 97.832C435.61 97.832 437.038 97.1787 438.102 95.872C439.184 94.5467 439.726 92.4467 439.726 89.572V78.4ZM465.042 98H462.718V78.68H457.874V78.4H469.914V78.68H465.042V98ZM499.712 78.4C500.067 78.7547 500.244 79.212 500.244 79.772C500.244 80.2387 500.141 80.7147 499.936 81.2L494.924 91.364V98H492.6V91.98L487 78.4H489.38L494.728 91.028L499.6 81.2C499.805 80.7333 499.908 80.248 499.908 79.744C499.908 79.24 499.768 78.848 499.488 78.568L499.712 78.4Z" fill="black"/>
<defs>
<linearGradient id="paint0_linear_740_207" x1="57.9646" y1="59.9537" x2="23.4705" y2="25.4596" gradientUnits="userSpaceOnUse">
<stop stop-color="#D18AAB"/>
<stop offset="1" stop-color="#66083C"/>
</linearGradient>
<linearGradient id="paint1_linear_740_207" x1="63.7326" y1="60.3548" x2="98.2267" y2="94.8489" gradientUnits="userSpaceOnUse">
<stop stop-color="#D18AAB"/>
<stop offset="1" stop-color="#66083C"/>
</linearGradient>
<radialGradient id="paint2_radial_740_207" cx="0" cy="0" r="1" gradientUnits="userSpaceOnUse" gradientTransform="translate(89.8971 54.4153) rotate(-180) scale(22.7474 154.198)">
<stop stop-color="#F3CCBB"/>
<stop offset="1" stop-color="#A34E4B"/>
</radialGradient>
<radialGradient id="paint3_radial_740_207" cx="0" cy="0" r="1" gradientUnits="userSpaceOnUse" gradientTransform="translate(31.6673 65.7605) scale(22.7474 154.198)">
<stop stop-color="#F3CCBB"/>
<stop offset="1" stop-color="#A34E4B"/>
</radialGradient>
</defs>
</svg>
