<svg width="502" height="121" viewBox="0 0 502 121" fill="none" xmlns="http://www.w3.org/2000/svg">
<path fill-rule="evenodd" clip-rule="evenodd" d="M24.9507 24.9511C16.0874 24.2741 7.77356 29.6396 7.01312 39.136C6.25266 48.6325 12.8337 56.6575 22.0272 57.7962C29.6708 58.7428 48.8636 57.6681 55.1171 57.2789C55.8165 57.2355 56.1664 57.2136 56.4475 57.0612C56.6927 56.9284 56.8997 56.7214 57.0328 56.4759C57.1852 56.1948 57.2068 55.8452 57.2505 55.1455C57.6397 48.892 58.7143 29.6994 57.7678 22.0556C56.6291 12.8621 48.6461 6.14714 39.1075 7.04169C29.5688 7.93624 24.2737 16.0879 24.9507 24.9511Z" fill="url(#paint0_linear_522_585)"/>
<path fill-rule="evenodd" clip-rule="evenodd" d="M96.7466 95.3585C105.61 96.0355 113.924 90.67 114.684 81.1735C115.445 71.6771 108.864 63.652 99.6701 62.5133C92.0265 61.5667 72.8336 62.6414 66.5802 63.0306C65.8807 63.0741 65.5309 63.0959 65.2497 63.2483C65.0045 63.3812 64.7975 63.5882 64.6644 63.8336C64.512 64.1148 64.4904 64.4644 64.4468 65.1641C64.0576 71.4175 62.983 90.6102 63.9295 98.2539C65.0682 107.447 73.0511 114.162 82.5898 113.268C92.1285 112.373 97.4236 104.222 96.7466 95.3585Z" fill="url(#paint1_linear_522_585)"/>
<path fill-rule="evenodd" clip-rule="evenodd" d="M94.9358 26.6293C95.5264 18.896 90.8449 11.642 82.5591 10.9785C74.2732 10.3149 67.2712 16.057 66.2777 24.0785C65.4518 30.7478 66.3895 47.4939 66.7291 52.9501C66.767 53.5604 66.786 53.8657 66.919 54.111C67.0349 54.325 67.2155 54.5056 67.4297 54.6217C67.675 54.7547 67.98 54.7735 68.5905 54.8116C74.0468 55.1512 90.7928 56.0888 97.4621 55.263C105.484 54.2694 111.343 47.3041 110.562 38.9814C109.782 30.6588 102.669 26.0386 94.9358 26.6293Z" stroke="url(#paint2_radial_522_585)" stroke-width="8" stroke-linecap="round" stroke-linejoin="round"/>
<path fill-rule="evenodd" clip-rule="evenodd" d="M26.6297 93.5474C26.039 101.281 30.7205 108.535 39.0063 109.198C47.2922 109.862 54.2942 104.12 55.2877 96.0982C56.1137 89.429 55.176 72.6829 54.8364 67.2266C54.7985 66.6163 54.7794 66.3111 54.6464 66.0657C54.5305 65.8518 54.3499 65.6712 54.1358 65.5551C53.8904 65.4221 53.5854 65.4032 52.9749 65.3651C47.5187 65.0255 30.7726 64.088 24.1033 64.9138C16.0818 65.9074 10.2228 72.8726 11.0034 81.1953C11.7839 89.518 18.8963 94.1381 26.6297 93.5474Z" stroke="url(#paint3_radial_522_585)" stroke-width="8" stroke-linecap="round" stroke-linejoin="round"/>
<path d="M168 59H145.2V17H150.18V58.4H168V59ZM178.348 59H177.628L195.568 17L196.228 16.7L211.348 59H206.248L201.568 45.8H184.048L178.348 59ZM193.708 23.48L184.288 45.2H201.388L193.708 23.48ZM222.812 17.6V17H247.292V17.6L226.112 58.4H244.172C245.332 58.4 246.392 58.2 247.352 57.8C248.312 57.4 248.952 56.82 249.272 56.06L249.752 56.3C249.672 56.5 249.532 56.76 249.332 57.08C249.172 57.36 248.632 57.76 247.712 58.28C246.792 58.76 245.672 59 244.352 59H221.252V58.4L242.312 17.6H222.812ZM285.928 17V17.6H267.028V35.6H284.548V36.2H267.028V58.4H287.248V59H262.048V17H285.928ZM299.571 17.48C304.211 17.16 308.311 17 311.871 17C321.751 17 326.691 20.3 326.691 26.9C326.691 29.7 326.011 32.2 324.651 34.4C323.291 36.6 320.951 38.06 317.631 38.78L329.631 59H324.051L312.291 39.14H304.551V59H299.571V17.48ZM311.871 17.6C309.551 17.6 307.111 17.74 304.551 18.02V38.54H313.431C319.071 38.3 321.891 34.46 321.891 27.02C321.891 23.98 321.051 21.66 319.371 20.06C317.691 18.42 315.191 17.6 311.871 17.6ZM366.016 59H365.236V17H367.276L392.236 55.82V17H393.016V59H388.636L366.016 24.2V59ZM407.102 17.6V17H417.782V17.6H414.842V58.4H417.782V59H407.102V58.4H409.862V17.6H407.102ZM451.358 59.24C443.878 59.24 438.338 57.12 434.738 52.88C433.458 51.36 432.418 49.34 431.618 46.82C430.818 44.3 430.418 41.24 430.418 37.64C430.418 34.04 430.998 30.82 432.158 27.98C433.358 25.1 434.978 22.88 437.018 21.32C440.978 18.4 445.758 16.94 451.358 16.94C452.958 16.94 454.518 17.08 456.038 17.36C457.558 17.6 458.698 17.86 459.458 18.14L460.538 18.56L460.358 19.16C457.638 18.08 454.638 17.54 451.358 17.54C447.118 17.54 443.578 18.92 440.738 21.68C438.578 23.72 437.058 26.72 436.178 30.68C435.658 32.92 435.398 35.66 435.398 38.9C435.398 42.14 435.858 45.14 436.778 47.9C437.698 50.62 438.738 52.64 439.898 53.96C441.098 55.28 442.538 56.34 444.218 57.14C445.898 57.9 447.238 58.34 448.238 58.46C449.238 58.58 450.438 58.64 451.838 58.64C453.278 58.64 454.898 58.5 456.698 58.22C458.498 57.94 459.858 57.68 460.778 57.44L462.158 57.02L462.338 57.62C459.298 58.7 455.638 59.24 451.358 59.24ZM498.529 17V17.6H479.629V35.6H497.149V36.2H479.629V58.4H499.849V59H474.649V17H498.529Z" fill="black"/>
<path d="M331.96 78.624C334.125 78.4747 336.039 78.4 337.7 78.4C342.311 78.4 344.616 79.94 344.616 83.02C344.616 84.1773 344.28 85.176 343.608 86.016C342.936 86.8373 341.863 87.3973 340.388 87.696C341.807 87.864 342.927 88.2933 343.748 88.984C344.569 89.6747 344.98 90.8787 344.98 92.596C344.98 96.1987 342.675 98 338.064 98H331.96V78.624ZM334.284 97.72H338.064C339.725 97.72 340.901 97.2907 341.592 96.432C342.301 95.5547 342.656 94.22 342.656 92.428C342.656 90.636 342.301 89.4413 341.592 88.844C340.883 88.2467 339.828 87.9293 338.428 87.892H334.284V97.72ZM337.7 78.68C336.617 78.68 335.479 78.7453 334.284 78.876V87.612H338.428C341.06 87.5 342.376 85.988 342.376 83.076C342.376 81.6573 341.984 80.5747 341.2 79.828C340.416 79.0627 339.249 78.68 337.7 78.68ZM374.473 78.4V78.68H365.653V87.08H373.829V87.36H365.653V97.72H375.089V98H363.329V78.4H374.473ZM392.656 98H392.32L400.692 78.4L401 78.26L408.056 98H405.676L403.492 91.84H395.316L392.656 98ZM399.824 81.424L395.428 91.56H403.408L399.824 81.424ZM439.726 78.4H440.09V89.6C440.09 92.5307 439.511 94.6867 438.354 96.068C437.196 97.4307 435.684 98.112 433.818 98.112C432.642 98.112 431.643 98.0093 430.822 97.804C430 97.58 429.226 97.1787 428.498 96.6C427.004 95.4427 426.258 93.1093 426.258 89.6V78.4H428.582V89.572C428.582 92.9693 429.095 95.2373 430.122 96.376C430.644 96.936 431.186 97.3187 431.746 97.524C432.324 97.7293 433.015 97.832 433.818 97.832C435.61 97.832 437.038 97.1787 438.102 95.872C439.184 94.5467 439.726 92.4467 439.726 89.572V78.4ZM465.042 98H462.718V78.68H457.874V78.4H469.914V78.68H465.042V98ZM499.712 78.4C500.067 78.7547 500.244 79.212 500.244 79.772C500.244 80.2387 500.141 80.7147 499.936 81.2L494.924 91.364V98H492.6V91.98L487 78.4H489.38L494.728 91.028L499.6 81.2C499.805 80.7333 499.908 80.248 499.908 79.744C499.908 79.24 499.768 78.848 499.488 78.568L499.712 78.4Z" fill="black"/>
<defs>
<linearGradient id="paint0_linear_522_585" x1="57.9646" y1="59.9537" x2="23.4705" y2="25.4596" gradientUnits="userSpaceOnUse">
<stop stop-color="#D18AAB"/>
<stop offset="1" stop-color="#66083C"/>
</linearGradient>
<linearGradient id="paint1_linear_522_585" x1="63.7326" y1="60.3558" x2="98.2267" y2="94.8499" gradientUnits="userSpaceOnUse">
<stop stop-color="#D18AAB"/>
<stop offset="1" stop-color="#66083C"/>
</linearGradient>
<radialGradient id="paint2_radial_522_585" cx="0" cy="0" r="1" gradientUnits="userSpaceOnUse" gradientTransform="translate(89.8971 54.4153) rotate(-180) scale(22.7474 154.198)">
<stop stop-color="#F3CCBB"/>
<stop offset="1" stop-color="#A34E4B"/>
</radialGradient>
<radialGradient id="paint3_radial_522_585" cx="0" cy="0" r="1" gradientUnits="userSpaceOnUse" gradientTransform="translate(31.6683 65.7614) scale(22.7474 154.198)">
<stop stop-color="#F3CCBB"/>
<stop offset="1" stop-color="#A34E4B"/>
</radialGradient>
</defs>
</svg>
