<svg width="176" height="174" viewBox="0 0 176 174" fill="none" xmlns="http://www.w3.org/2000/svg">
<path fill-rule="evenodd" clip-rule="evenodd" d="M35.9423 35.9422C23.1745 34.967 11.1981 42.6962 10.1026 56.3761C9.00717 70.0561 18.4873 81.6164 31.7309 83.2567C42.7418 84.6204 70.3897 83.0722 79.398 82.5115C80.4056 82.449 80.9096 82.4175 81.3146 82.1979C81.6678 82.0066 81.966 81.7084 82.1577 81.3548C82.3772 80.9498 82.4084 80.4462 82.4713 79.4382C83.032 70.43 84.5799 42.7823 83.2164 31.7712C81.5761 18.5277 70.0764 8.85447 56.3356 10.1431C42.5949 11.4317 34.967 23.1744 35.9423 35.9422Z" fill="url(#paint0_linear_521_561)"/>
<path fill-rule="evenodd" clip-rule="evenodd" d="M139.366 137.366C152.134 138.342 164.111 130.612 165.206 116.932C166.301 103.253 156.821 91.6922 143.578 90.0518C132.567 88.6882 104.919 90.2364 95.9106 90.797C94.903 90.8596 94.399 90.8911 93.994 91.1106C93.6408 91.302 93.3426 91.6002 93.1509 91.9538C92.9314 92.3588 92.9002 92.8624 92.8373 93.8704C92.2766 102.879 90.7287 130.526 92.0922 141.537C93.7325 154.781 105.232 164.454 118.973 163.165C132.714 161.877 140.342 150.134 139.366 137.366Z" fill="url(#paint1_linear_521_561)"/>
<path fill-rule="evenodd" clip-rule="evenodd" d="M136.758 38.3604C137.609 27.2202 130.865 16.7705 118.929 15.8148C106.993 14.8589 96.9066 23.1306 95.4754 34.6859C94.2856 44.2931 95.6364 68.4165 96.1256 76.2764C96.1802 77.1555 96.2077 77.5953 96.3992 77.9486C96.5662 78.2569 96.8264 78.517 97.1349 78.6843C97.4883 78.8758 97.9277 78.903 98.8072 78.9579C106.667 79.4471 130.79 80.7977 140.398 79.6081C151.953 78.1768 160.393 68.1431 159.269 56.154C158.144 44.1649 147.899 37.5095 136.758 38.3604Z" stroke="url(#paint2_radial_521_561)" stroke-width="8" stroke-linecap="round" stroke-linejoin="round"/>
<path fill-rule="evenodd" clip-rule="evenodd" d="M38.3608 134.759C37.5099 145.899 44.2538 156.349 56.1898 157.304C68.1259 158.26 78.2125 149.989 79.6437 138.433C80.8335 128.826 79.4827 104.703 78.9935 96.8428C78.9389 95.9636 78.9115 95.5239 78.7199 95.1705C78.5529 94.8623 78.2927 94.6021 77.9843 94.4349C77.6309 94.2433 77.1914 94.2161 76.312 94.1612C68.4521 93.6721 44.3289 92.3214 34.7215 93.5111C23.1663 94.9423 14.7262 104.976 15.8506 116.965C16.9749 128.954 27.2206 135.61 38.3608 134.759Z" stroke="url(#paint3_radial_521_561)" stroke-width="8" stroke-linecap="round" stroke-linejoin="round"/>
<defs>
<linearGradient id="paint0_linear_521_561" x1="83.5" y1="86.3647" x2="33.8101" y2="36.6748" gradientUnits="userSpaceOnUse">
<stop stop-color="#D18AAB"/>
<stop offset="1" stop-color="#66083C"/>
</linearGradient>
<linearGradient id="paint1_linear_521_561" x1="91.8086" y1="86.9439" x2="141.498" y2="136.634" gradientUnits="userSpaceOnUse">
<stop stop-color="#D18AAB"/>
<stop offset="1" stop-color="#66083C"/>
</linearGradient>
<radialGradient id="paint2_radial_521_561" cx="0" cy="0" r="1" gradientUnits="userSpaceOnUse" gradientTransform="translate(129.5 78.387) rotate(-180) scale(32.7683 222.128)">
<stop stop-color="#F3CCBB"/>
<stop offset="1" stop-color="#A34E4B"/>
</radialGradient>
<radialGradient id="paint3_radial_521_561" cx="0" cy="0" r="1" gradientUnits="userSpaceOnUse" gradientTransform="translate(45.6191 94.7321) scale(32.7683 222.128)">
<stop stop-color="#F3CCBB"/>
<stop offset="1" stop-color="#A34E4B"/>
</radialGradient>
</defs>
</svg>
