<svg width="40" height="36" viewBox="0 0 40 36" fill="none" xmlns="http://www.w3.org/2000/svg">
<g clip-path="url(#clip0_721_7837)">
<path fill-rule="evenodd" clip-rule="evenodd" d="M8.66667 2.57143V1.28571C8.66667 0.578571 9.26667 0 10 0C10.7333 0 11.3333 0.578571 11.3333 1.28571V2.57143H28.6667V1.28571C28.6667 0.578571 29.2667 0 30 0C30.7333 0 31.3333 0.578571 31.3333 1.28571V2.57143C36.2 2.89286 40 6.81429 40 11.5714V27C40 31.95 35.8 36 30.6667 36H9.33333C4.2 36 0 31.95 0 27V11.5714C0 6.81429 3.8 2.89286 8.66667 2.57143ZM11.3333 14.1429C11.3333 14.85 10.7333 15.4286 10 15.4286C9.26667 15.4286 8.66667 14.85 8.66667 14.1429C8.66667 13.4357 9.26667 12.8571 10 12.8571C10.7333 12.8571 11.3333 13.4357 11.3333 14.1429ZM11.3333 19.9286C11.3333 20.6357 10.7333 21.2143 10 21.2143C9.26667 21.2143 8.66667 20.6357 8.66667 19.9286C8.66667 19.2214 9.26667 18.6429 10 18.6429C10.7333 18.6429 11.3333 19.2214 11.3333 19.9286ZM11.3333 25.7143C11.3333 26.4214 10.7333 27 10 27C9.26667 27 8.66667 26.4214 8.66667 25.7143C8.66667 25.0071 9.26667 24.4286 10 24.4286C10.7333 24.4286 11.3333 25.0071 11.3333 25.7143ZM21.3333 14.1429C21.3333 14.85 20.7333 15.4286 20 15.4286C19.2667 15.4286 18.6667 14.85 18.6667 14.1429C18.6667 13.4357 19.2667 12.8571 20 12.8571C20.7333 12.8571 21.3333 13.4357 21.3333 14.1429ZM27.0667 13.2429C27.6 12.7286 28.4 12.7286 28.9333 13.2429L30 14.2714L31.0667 13.2429C31.6 12.7286 32.4 12.7286 32.9333 13.2429C33.4667 13.7571 33.4667 14.5286 32.9333 15.0429L31.8667 16.0714L32.9333 17.1C33.4667 17.6143 33.4667 18.3857 32.9333 18.9C32.4 19.4143 31.6 19.4143 31.0667 18.9L30 17.8714L28.9333 18.9C28.4 19.4143 27.6 19.4143 27.0667 18.9C26.5333 18.3857 26.5333 17.6143 27.0667 17.1L28.1333 16.0714L27.0667 15.0429C26.5333 14.5286 26.5333 13.7571 27.0667 13.2429ZM21.3333 19.9286C21.3333 20.6357 20.7333 21.2143 20 21.2143C19.2667 21.2143 18.6667 20.6357 18.6667 19.9286C18.6667 19.2214 19.2667 18.6429 20 18.6429C20.7333 18.6429 21.3333 19.2214 21.3333 19.9286ZM21.3333 25.7143C21.3333 26.4214 20.7333 27 20 27C19.2667 27 18.6667 26.4214 18.6667 25.7143C18.6667 25.0071 19.2667 24.4286 20 24.4286C20.7333 24.4286 21.3333 25.0071 21.3333 25.7143ZM31.3333 25.7143C31.3333 26.4214 30.7333 27 30 27C29.2667 27 28.6667 26.4214 28.6667 25.7143C28.6667 25.0071 29.2667 24.4286 30 24.4286C30.7333 24.4286 31.3333 25.0071 31.3333 25.7143Z" fill="#E44DAE"/>
</g>
<defs>
<clipPath id="clip0_721_7837">
<rect width="40" height="36" fill="white"/>
</clipPath>
</defs>
</svg>
