<svg width="29" height="48" viewBox="0 0 29 48" fill="none" xmlns="http://www.w3.org/2000/svg">
<g clip-path="url(#clip0_721_7840)">
<path d="M14.2458 25.8065C6.61417 24.2581 4.07031 25.8065 4.07031 25.8065V43.3548H23.4036V26.3226C23.4036 26.3226 21.3686 27.3548 14.2458 25.8065Z" fill="#E44DAE"/>
<path d="M1.52632 48H25.9474C26.9649 48 27.4737 47.4839 27.4737 46.4516V24.7742C27.4737 22.1935 26.4561 20.129 24.4211 18.0645C22.8947 16.5161 20.3509 15.4839 17.2982 14.9677V13.4194C17.2982 13.4194 17.2982 12.9032 16.7895 12.9032H15.7719V11.871C15.7719 11.871 15.7719 11.3548 15.2632 11.3548V6.19355H19.3333C19.3333 6.19355 19.8421 6.19355 19.8421 5.67742V4.64516H27.4737V5.67742H29.5088V4.12903C29.5088 3.6129 29 3.09677 29 2.58065C27.9825 2.06452 27.4737 2.06452 26.9649 2.06452H19.3333V0.516129C19.3333 0.516129 19.3333 0 18.8246 0H9.1579C9.1579 0 8.64912 0 8.64912 0.516129V6.19355C8.64912 6.19355 8.64912 6.70968 9.1579 6.70968H12.7193V11.871H12.2105C12.2105 11.871 11.7018 11.871 11.7018 12.3871V13.4194H10.6842C10.6842 13.4194 10.1754 13.4194 10.1754 13.9355V15.4839C7.63158 15.4839 5.08772 16.5161 3.05263 18.5806C1.01754 20.129 0 22.7097 0 24.7742V45.9355C0 46.9677 0.508772 48 1.52632 48ZM3.05263 24.7742C3.05263 21.6774 6.10526 18.5806 10.1754 18.0645H16.7895C20.8597 18.5806 23.9123 21.6774 23.9123 24.7742V44.3871H3.05263V24.7742Z" fill="#E44DAE"/>
</g>
<defs>
<clipPath id="clip0_721_7840">
<rect width="29" height="48" fill="white"/>
</clipPath>
</defs>
</svg>
