<svg width="46" height="46" viewBox="0 0 46 46" fill="none" xmlns="http://www.w3.org/2000/svg">
<g clip-path="url(#clip0_721_7844)">
<path d="M45.5399 19.5756L26.4243 0.40891C25.8621 -0.153312 24.9421 -0.153312 24.3799 0.40891L19.2688 5.52002C18.911 5.8778 18.911 6.44002 19.2688 6.7978L27.1399 14.6689L23.8177 18.0422C22.9488 18.9111 21.9777 19.6778 20.9554 20.3934L20.0866 20.9556C19.0643 21.62 18.1443 22.3867 17.2754 23.2556L1.32878 39.9178C-0.204556 41.4511 -0.562334 43.4956 0.971 45.0289C2.50433 46.5622 4.54878 46.1534 6.08211 44.6711L22.7443 28.6734C23.6132 27.8556 24.3799 26.8845 25.0443 25.8622L25.6066 24.9934C26.271 23.9711 27.0888 23 27.9577 22.1311L31.2799 18.8089L39.151 26.7311C39.5088 27.0889 40.071 27.0889 40.4288 26.7311L45.5399 21.62C46.1021 21.0067 46.1021 20.1378 45.5399 19.5756ZM40.6843 23.5111L22.4377 5.31558L22.9488 4.80447L41.1954 23.0511L40.6843 23.5111ZM41.7066 22.4889L23.4599 4.24224L23.971 3.73113L42.2177 22.0289L41.7066 22.4889ZM42.8821 21.3645L24.6354 3.1178L25.8621 1.89113L44.1088 20.1378L42.8821 21.3645Z" fill="#E44DAE"/>
</g>
<defs>
<clipPath id="clip0_721_7844">
<rect width="46" height="46" fill="white"/>
</clipPath>
</defs>
</svg>
